<svg width="64" height="64" viewBox="0 0 64 64" fill="none" xmlns="http://www.w3.org/2000/svg">
    <g clip-path="url(#clip0_1_2)">
        <mask id="path-1-inside-1_1_2" fill="#fff">
            <path d="M60 32C62.2091 32 64.0258 30.2021 63.7504 28.0102C62.9747 21.8373 60.411 15.9924 56.333 11.2177C51.3847 5.4239 44.5314 1.58589 37.0059 0.393973C29.4804 -0.797948 21.7766 0.734441 15.28 4.71551C8.78353 8.69659 3.92069 14.8651 1.56619 22.1115C-0.788302 29.3578 -0.479925 37.2066 2.43585 44.2459C5.35163 51.2852 10.6835 57.0531 17.4723 60.5122C24.2611 63.9713 32.0615 64.8945 39.4702 63.1158C45.576 61.65 51.0856 58.4283 55.3415 53.8902C56.8526 52.2788 56.4397 49.7565 54.6525 48.458V48.458C52.8652 47.1595 50.384 47.5856 48.807 49.1326C45.7208 52.1601 41.8545 54.3161 37.6027 55.3369C32.0461 56.6709 26.1959 55.9785 21.1042 53.3842C16.0126 50.7898 12.0137 46.4639 9.82689 41.1844C7.64006 35.9049 7.40877 30.0184 9.17464 24.5836C10.9405 19.1488 14.5876 14.5224 19.46 11.5366C24.3324 8.55083 30.1103 7.40154 35.7544 8.29548C41.3985 9.18942 46.5385 12.0679 50.2497 16.4132C53.0895 19.7382 54.9502 23.755 55.6675 28.0183C56.034 30.1969 57.7909 32 60 32V32Z"/>
        </mask>
        <path d="M60 32C62.2091 32 64.0258 30.2021 63.7504 28.0102C62.9747 21.8373 60.411 15.9924 56.333 11.2177C51.3847 5.4239 44.5314 1.58589 37.0059 0.393973C29.4804 -0.797948 21.7766 0.734441 15.28 4.71551C8.78353 8.69659 3.92069 14.8651 1.56619 22.1115C-0.788302 29.3578 -0.479925 37.2066 2.43585 44.2459C5.35163 51.2852 10.6835 57.0531 17.4723 60.5122C24.2611 63.9713 32.0615 64.8945 39.4702 63.1158C45.576 61.65 51.0856 58.4283 55.3415 53.8902C56.8526 52.2788 56.4397 49.7565 54.6525 48.458V48.458C52.8652 47.1595 50.384 47.5856 48.807 49.1326C45.7208 52.1601 41.8545 54.3161 37.6027 55.3369C32.0461 56.6709 26.1959 55.9785 21.1042 53.3842C16.0126 50.7898 12.0137 46.4639 9.82689 41.1844C7.64006 35.9049 7.40877 30.0184 9.17464 24.5836C10.9405 19.1488 14.5876 14.5224 19.46 11.5366C24.3324 8.55083 30.1103 7.40154 35.7544 8.29548C41.3985 9.18942 46.5385 12.0679 50.2497 16.4132C53.0895 19.7382 54.9502 23.755 55.6675 28.0183C56.034 30.1969 57.7909 32 60 32V32Z" stroke="#A3F8CE" stroke-width="16" mask="url(#path-1-inside-1_1_2)"/>
    </g>
    <defs>
        <clipPath id="clip0_1_2">
            <rect width="64" height="64" fill="#fff"/>
        </clipPath>
    </defs>
</svg>
